<svg width="280" height="70" viewBox="0 0 280 70" fill="none" xmlns="http://www.w3.org/2000/svg">
<g clip-path="url(#clip0_117_87)">
<path d="M257.884 68.9909C253.281 68.9909 249.265 67.9362 245.835 65.8268C242.404 63.7175 239.741 60.7665 237.844 56.9739C235.948 53.1812 235 48.7494 235 43.6784C235 38.5861 235.948 34.1329 237.844 30.319C239.741 26.5051 242.404 23.5435 245.835 21.4341C249.265 19.3247 253.281 18.27 257.884 18.27C262.486 18.27 266.502 19.3247 269.933 21.4341C273.363 23.5435 276.026 26.5051 277.923 30.319C279.819 34.1329 280.767 38.5861 280.767 43.6784C280.767 48.7494 279.819 53.1812 277.923 56.9739C276.026 60.7665 273.363 63.7175 269.933 65.8268C266.502 67.9362 262.486 68.9909 257.884 68.9909ZM257.915 60.9689C260.898 60.9689 263.37 60.1805 265.33 58.6038C267.29 57.0271 268.739 54.9284 269.677 52.3077C270.636 49.6869 271.115 46.7998 271.115 43.6464C271.115 40.5143 270.636 37.6379 269.677 35.0172C268.739 32.3751 267.29 30.2551 265.33 28.6571C263.37 27.0591 260.898 26.2601 257.915 26.2601C254.911 26.2601 252.418 27.0591 250.437 28.6571C248.477 30.2551 247.017 32.3751 246.058 35.0172C245.121 37.6379 244.652 40.5143 244.652 43.6464C244.652 46.7998 245.121 49.6869 246.058 52.3077C247.017 54.9284 248.477 57.0271 250.437 58.6038C252.418 60.1805 254.911 60.9689 257.915 60.9689Z" fill="#111827"/>
<path d="M226.863 18.9092L209.061 68.0001H198.834L181 18.9092H191.259L203.692 56.6862H204.203L216.604 18.9092H226.863Z" fill="#111827"/>
<path d="M157.214 68.0001V18.9092H166.771V68.0001H157.214ZM162.04 11.3346C160.379 11.3346 158.951 10.7806 157.758 9.67267C156.586 8.54341 156 7.20108 156 5.64568C156 4.06898 156.586 2.72665 157.758 1.61869C158.951 0.489434 160.379 -0.0751953 162.04 -0.0751953C163.702 -0.0751953 165.119 0.489434 166.291 1.61869C167.484 2.72665 168.081 4.06898 168.081 5.64568C168.081 7.20108 167.484 8.54341 166.291 9.67267C165.119 10.7806 163.702 11.3346 162.04 11.3346Z" fill="#111827"/>
<path d="M138.96 30.8943L130.298 32.4284C129.936 31.3204 129.361 30.2658 128.572 29.2643C127.805 28.2629 126.761 27.4426 125.44 26.8034C124.119 26.1642 122.468 25.8446 120.487 25.8446C117.781 25.8446 115.522 26.4518 113.711 27.6663C111.9 28.8595 110.994 30.4043 110.994 32.3006C110.994 33.9412 111.602 35.2622 112.816 36.2636C114.031 37.265 115.991 38.0854 118.697 38.7246L126.495 40.5143C131.012 41.5584 134.379 43.167 136.594 45.3403C138.81 47.5136 139.918 50.3368 139.918 53.8098C139.918 56.7501 139.066 59.3709 137.362 61.672C135.678 63.9518 133.324 65.7416 130.298 67.0413C127.294 68.341 123.81 68.9909 119.847 68.9909C114.35 68.9909 109.865 67.819 106.392 65.4753C102.919 63.1102 100.788 59.7544 100 55.4078L109.237 54.0016C109.812 56.4092 110.994 58.231 112.784 59.4668C114.574 60.6812 116.907 61.2885 119.783 61.2885C122.915 61.2885 125.419 60.6386 127.294 59.3389C129.169 58.0179 130.107 56.4092 130.107 54.5129C130.107 52.9788 129.531 51.6898 128.381 50.6457C127.251 49.6017 125.515 48.8133 123.171 48.2807L114.862 46.4589C110.281 45.4149 106.893 43.753 104.698 41.4731C102.525 39.1933 101.438 36.3062 101.438 32.8119C101.438 29.9142 102.248 27.3787 103.867 25.2054C105.487 23.0321 107.724 21.3382 110.579 20.1237C113.434 18.8879 116.705 18.27 120.391 18.27C125.696 18.27 129.872 19.4206 132.919 21.7217C135.966 24.0016 137.979 27.0591 138.96 30.8943Z" fill="#111827"/>
<path d="M75.2145 68.0001V18.9092H84.7706V68.0001H75.2145ZM80.0405 11.3346C78.3786 11.3346 76.951 10.7806 75.7578 9.67267C74.5859 8.54341 74 7.20108 74 5.64568C74 4.06898 74.5859 2.72665 75.7578 1.61869C76.951 0.489434 78.3786 -0.0751953 80.0405 -0.0751953C81.7024 -0.0751953 83.1193 0.489434 84.2912 1.61869C85.4844 2.72665 86.081 4.06898 86.081 5.64568C86.081 7.20108 85.4844 8.54341 84.2912 9.67267C83.1193 10.7806 81.7024 11.3346 80.0405 11.3346Z" fill="#111827"/>
<path d="M0 58C13 54 28 55 43 53.5C55.5 52.5 65.5 53 74.25 52L70.5 64.5C60.5 65.5 50.5 62.5 39.25 64C28 65.5 15.5 66 3 68L0 58Z" fill="#D9FF00"/>
<path d="M41.9462 20.7043C41.6172 17.7431 40.2603 15.4493 37.8753 13.8227C35.4904 12.1754 32.4886 11.3517 28.8701 11.3517C26.2795 11.3517 24.0385 11.7687 22.147 12.6028C20.2555 13.4161 18.7854 14.5422 17.7369 15.981C16.7089 17.3991 16.1949 19.0152 16.1949 20.8294C16.1949 22.3517 16.5444 23.6654 17.2434 24.7706C17.963 25.8758 18.8985 26.8038 20.0499 27.5545C21.2218 28.2844 22.4759 28.8995 23.8123 29.4C25.1487 29.8796 26.4337 30.2758 27.6673 30.5886L33.8353 32.2152C35.8502 32.7156 37.9164 33.3934 40.0341 34.2483C42.1518 35.1033 44.1153 36.2294 45.9245 37.6265C47.7338 39.0237 49.1936 40.7545 50.3038 42.819C51.4346 44.8834 52 47.3545 52 50.2322C52 53.8607 51.0748 57.0825 49.2244 59.8976C47.3946 62.7128 44.7321 64.9337 41.2369 66.5602C37.7622 68.1867 33.5577 69 28.6234 69C23.8946 69 19.8031 68.2389 16.3491 66.7166C12.895 65.1943 10.1914 63.036 8.23819 60.2417C6.285 57.4265 5.2056 54.09 5 50.2322H14.5604C14.7454 52.5469 15.4856 54.4758 16.7808 56.019C18.0967 57.5412 19.7723 58.6777 21.8077 59.4284C23.8637 60.1583 26.115 60.5232 28.5617 60.5232C31.255 60.5232 33.6503 60.0957 35.7474 59.2408C37.865 58.3649 39.5304 57.1555 40.7434 55.6123C41.9565 54.0483 42.563 52.2237 42.563 50.1384C42.563 48.2408 42.0284 46.6872 40.9593 45.4777C39.9108 44.2682 38.4818 43.2673 36.6726 42.4749C34.8839 41.6825 32.8587 40.9839 30.5971 40.3791L23.1339 38.3147C18.0761 36.9175 14.0669 34.8635 11.1063 32.1526C8.16623 29.4417 6.69619 25.855 6.69619 21.3924C6.69619 17.7014 7.68307 14.4796 9.65682 11.727C11.6306 8.9744 14.3034 6.83697 17.6752 5.31469C21.047 3.77156 24.8506 3 29.086 3C33.3624 3 37.1352 3.76114 40.4042 5.28341C43.6938 6.80569 46.2843 8.90142 48.1759 11.5706C50.0674 14.219 51.0542 17.2635 51.1365 20.7043H41.9462Z" fill="#111827"/>
</g>
<defs>
<clipPath id="clip0_117_87">
<rect width="280" height="70" fill="white"/>
</clipPath>
</defs>
</svg>
